<?xml version="1.0"?>
<svg xmlns="http://www.w3.org/2000/svg" height="512px" viewBox="-72 1 511 511.999" width="512px"><path d="m336.660156 48.097656h-57.859375c-3.140625-9.308594-11.949219-16.03125-22.300781-16.03125h-27.160156c-6.523438-18.902344-24.550782-32.066406-44.984375-32.066406-20.4375 0-38.460938 13.164062-44.984375 32.0625h-27.160156c-10.355469 0-19.160157 6.726562-22.300782 16.035156h-57.863281c-17.394531 0-31.546875 14.148438-31.546875 31.546875v400.804688c0 17.398437 14.152344 31.550781 31.546875 31.550781h304.613281c17.394532 0 31.546875-14.152344 31.546875-31.550781v-400.804688c.003907-17.394531-14.148437-31.546875-31.546875-31.546875zm-224.449218-1.035156h32.871093c3.566407 0 6.640625-2.511719 7.347657-6.007812 3.066406-15.097657 16.492187-26.054688 31.925781-26.054688 15.429687 0 28.855469 10.957031 31.921875 26.058594.710937 3.496094 3.78125 6.007812 7.351562 6.007812h32.871094c4.703125 0 8.53125 3.828125 8.53125 8.53125v16.03125c0 4.707032-3.828125 8.53125-8.53125 8.53125h-144.289062c-4.707032 0-8.535157-3.828125-8.535157-8.53125v-16.023437c0-.003907 0-.003907 0-.007813s0-.003906 0-.007812c.003907-4.699219 3.832031-8.527344 8.535157-8.527344zm241 433.390625c0 9.125-7.425782 16.546875-16.550782 16.546875h-304.613281c-9.125 0-16.546875-7.421875-16.546875-16.546875v-400.808594c0-9.125 7.421875-16.546875 16.546875-16.546875h56.628906v8.53125c0 3.007813.574219 5.886719 1.609375 8.53125h-42.207031c-8.554687 0-15.515625 6.960938-15.515625 15.515625v352.710938c0 8.554687 6.960938 15.515625 15.515625 15.515625h8.019531c4.144532 0 7.5-3.355469 7.5-7.5 0-4.140625-3.355468-7.5-7.5-7.5h-8.019531c-.285156 0-.515625-.230469-.515625-.515625v-352.710938c0-.285156.230469-.515625.515625-.515625h208.421875c12.972656 0 23.53125-10.554687 23.53125-23.53125v-8.53125h56.628906c9.125 0 16.546875 7.421875 16.546875 16.546875v400.808594zm0 0" fill="#FFFFFF"/><path d="m184.433594 55.082031c4.144531 0 7.5-3.359375 7.5-7.5 0-4.144531-3.355469-7.5-7.5-7.5h-.078125c-4.144531 0-7.460938 3.355469-7.460938 7.5 0 4.140625 3.398438 7.5 7.539063 7.5zm0 0" fill="#FFFFFF"/><path d="m320.628906 80.160156h-16.03125c-4.144531 0-7.5 3.359375-7.5 7.5 0 4.144532 3.355469 7.5 7.5 7.5h16.03125c.285156 0 .515625.230469.515625.515625v352.710938c0 .285156-.230469.515625-.515625.515625h-232.464844c-4.140624 0-7.5 3.359375-7.5 7.5 0 4.144531 3.359376 7.5 7.5 7.5h232.464844c8.554688 0 15.515625-6.960938 15.515625-15.515625v-352.710938c0-8.554687-6.960937-15.515625-15.515625-15.515625zm0 0" fill="#FFFFFF"/><path d="m96.175781 255.484375h64.128907c8.558593 0 15.519531-6.960937 15.519531-15.515625v-12.492188c0-10.148437-6.46875-19.117187-16.09375-22.328124l-7.601563-2.53125c-.210937-.070313-.355468-.269532-.355468-.492188v-13.320312c4.980468-5.578126 8.015624-12.929688 8.015624-20.980469v-8.015625c0-17.398438-14.152343-31.550782-31.546874-31.550782-17.398438 0-31.546876 14.152344-31.546876 31.550782v8.015625c0 8.050781 3.03125 15.402343 8.015626 20.980469v13.320312c0 .222656-.144532.421875-.355469.492188l-7.601563 2.535156c-9.625 3.207031-16.09375 12.179687-16.09375 22.324218v12.492188c0 8.554688 6.960938 15.515625 15.515625 15.515625zm15.519531-95.675781c0-9.125 7.421876-16.550782 16.546876-16.550782s16.546874 7.425782 16.546874 16.550782v8.015625c0 9.125-7.421874 16.546875-16.546874 16.546875s-16.546876-7.421875-16.546876-16.546875zm-16.035156 67.667968c0-3.679687 2.347656-6.933593 5.835938-8.09375l7.605468-2.535156c6.34375-2.117187 10.609376-8.03125 10.609376-14.722656v-3.933594c2.714843.761719 5.574218 1.179688 8.53125 1.179688 2.957031 0 5.816406-.417969 8.53125-1.179688v3.933594c0 6.6875 4.261718 12.605469 10.609374 14.722656l7.605469 2.535156c3.488281 1.160157 5.832031 4.414063 5.832031 8.09375v12.492188c0 .285156-.230468.515625-.515624.515625h-64.128907c-.285156 0-.515625-.230469-.515625-.515625zm0 0" fill="#FFFFFF"/><path d="m216.417969 183.339844h56.113281c12.976562 0 23.53125-10.558594 23.53125-23.53125 0-12.976563-10.554688-23.535156-23.53125-23.535156h-56.113281c-12.976563 0-23.53125 10.558593-23.53125 23.535156 0 12.972656 10.558593 23.53125 23.53125 23.53125zm0-32.066406h56.113281c4.707031 0 8.53125 3.828124 8.53125 8.53125 0 4.707031-3.828125 8.535156-8.53125 8.535156h-56.113281c-4.703125 0-8.53125-3.828125-8.53125-8.535156 0-4.703126 3.828125-8.53125 8.53125-8.53125zm0 0" fill="#FFFFFF"/><path d="m280.03125 207.902344c0-4.140625-3.359375-7.5-7.5-7.5h-64.128906c-4.140625 0-7.5 3.359375-7.5 7.5 0 4.144531 3.359375 7.5 7.5 7.5h64.128906c4.140625 0 7.5-3.355469 7.5-7.5zm0 0" fill="#FFFFFF"/><path d="m208.402344 232.46875c-4.140625 0-7.5 3.355469-7.5 7.5 0 4.140625 3.359375 7.5 7.5 7.5h48.097656c4.140625 0 7.5-3.359375 7.5-7.5 0-4.144531-3.359375-7.5-7.5-7.5zm0 0" fill="#FFFFFF"/><path d="m88.160156 303.582031h192.386719c4.144531 0 7.5-3.359375 7.5-7.5 0-4.144531-3.355469-7.5-7.5-7.5h-192.386719c-4.140625 0-7.5 3.355469-7.5 7.5 0 4.140625 3.359375 7.5 7.5 7.5zm0 0" fill="#FFFFFF"/><path d="m88.160156 335.644531h192.386719c4.144531 0 7.5-3.359375 7.5-7.5s-3.355469-7.5-7.5-7.5h-192.386719c-4.140625 0-7.5 3.359375-7.5 7.5s3.359375 7.5 7.5 7.5zm0 0" fill="#FFFFFF"/><path d="m88.160156 367.710938h192.386719c4.144531 0 7.5-3.359376 7.5-7.5 0-4.144532-3.355469-7.5-7.5-7.5h-192.386719c-4.140625 0-7.5 3.355468-7.5 7.5 0 4.140624 3.359375 7.5 7.5 7.5zm0 0" fill="#FFFFFF"/><path d="m88.160156 399.773438h192.386719c4.144531 0 7.5-3.359376 7.5-7.5 0-4.140626-3.355469-7.5-7.5-7.5h-192.386719c-4.140625 0-7.5 3.359374-7.5 7.5 0 4.140624 3.359375 7.5 7.5 7.5zm0 0" fill="#FFFFFF"/></svg>
