<?xml version="1.0" encoding="iso-8859-1"?>
<!-- Generator: Adobe Illustrator 18.0.0, SVG Export Plug-In . SVG Version: 6.00 Build 0)  -->
<!DOCTYPE svg PUBLIC "-//W3C//DTD SVG 1.1//EN" "http://www.w3.org/Graphics/SVG/1.1/DTD/svg11.dtd">
<svg xmlns="http://www.w3.org/2000/svg" xmlns:xlink="http://www.w3.org/1999/xlink" version="1.1" id="Capa_1" x="0px" y="0px" viewBox="0 0 59.903 59.903" style="enable-background:new 0 0 59.903 59.903;" xml:space="preserve" width="512px" height="512px">
<g>
	<path d="M57.313,42.578l0.39-0.924c5.998-15.377-0.878-32.875-15.924-39.262C38.039,0.805,34.099,0,30.07,0   C18.002,0,7.157,7.178,2.442,18.286c-3.131,7.376-3.202,15.53-0.2,22.96s8.717,13.246,16.094,16.377   c3.736,1.586,7.588,2.28,11.616,2.28h0c3.808,0,7.627-0.606,11.182-2.019l0.935-0.372L31.63,31.677L57.313,42.578z" fill="#a50e1a"/>
	<path d="M59.579,46.078L35.93,36.039l9.36,23.166c0.171,0.424,0.578,0.698,1.036,0.698l0.267-0.011l0.198-0.091   c5.565-2.545,10.162-6.933,12.944-12.352c0.143-0.276,0.163-0.602,0.058-0.895L59.579,46.078z" fill="#a50e1a"/>
</g>
<g>
</g>
<g>
</g>
<g>
</g>
<g>
</g>
<g>
</g>
<g>
</g>
<g>
</g>
<g>
</g>
<g>
</g>
<g>
</g>
<g>
</g>
<g>
</g>
<g>
</g>
<g>
</g>
<g>
</g>
</svg>
