<?xml version="1.0" encoding="iso-8859-1"?>
<!-- Generator: Adobe Illustrator 19.0.0, SVG Export Plug-In . SVG Version: 6.00 Build 0)  -->
<svg xmlns="http://www.w3.org/2000/svg" xmlns:xlink="http://www.w3.org/1999/xlink" version="1.1" id="Layer_1" x="0px" y="0px" viewBox="0 0 512 512" style="enable-background:new 0 0 512 512;" xml:space="preserve" width="512px" height="512px">
<g>
	<g>
		<g>
			<path d="M409.603,187.732c0-17.604-16.401-30.199-34.133-33.348v66.722C393.151,218.086,409.603,205.9,409.603,187.732z" fill="#036194"/>
			<path d="M366.933,290.133c79.991,0,145.067-65.075,145.067-145.067S446.925,0,366.933,0c-59.52,0-110.737,36.062-133.069,87.467     c-6.912-1.408-13.79-2.133-20.531-2.133c-61.167,0-110.933,52.634-110.933,117.333v44.8c0,30.438,10.061,63.07,26.795,89.694     l-8.755,27.153c-0.691,2.133-0.35,4.386,0.64,6.374c-27.785,5.427-59.085,17.698-99.311,38.869     C8.337,416.623,0,430.447,0,445.636v57.83C0,508.186,3.823,512,8.533,512h153.6h102.4h153.6c4.719,0,8.533-3.814,8.533-8.533     v-57.83c0-15.189-8.337-29.013-21.76-36.079c-40.226-21.171-71.526-33.442-99.311-38.869c0.99-1.988,1.331-4.241,0.64-6.374     l-8.687-26.94c10.522-16.759,18.313-35.84,22.665-55.108C334.899,287.283,350.575,290.133,366.933,290.133z M142.345,372.335     c-0.009-0.009-0.017-0.017-0.026-0.034l-4.378-6.639l3.635-11.29c0.137,0.162,0.273,0.299,0.418,0.461     c0.512,0.606,1.058,1.161,1.579,1.758c1.946,2.219,3.925,4.352,5.948,6.383c1.024,1.016,2.057,1.988,3.098,2.97     c1.613,1.502,3.26,2.953,4.915,4.344c1.203,1.015,2.406,2.048,3.635,2.995c1.954,1.51,3.942,2.884,5.948,4.215     c1.971,1.323,3.985,2.543,6.025,3.712c1.493,0.845,2.987,1.69,4.497,2.449c1.544,0.777,3.106,1.493,4.685,2.176     c1.724,0.751,3.473,1.399,5.222,2.014c1.314,0.478,2.611,0.998,3.951,1.399c2.603,0.785,5.222,1.434,7.859,1.946l-20.676,36.241     L142.345,372.335z M173.449,494.933l12.194-42.667h55.39l12.194,42.667H173.449z M284.356,372.301     c-0.009,0.017-0.017,0.026-0.026,0.034l-36.343,55.108l-20.71-36.241c0.862-0.171,1.707-0.435,2.569-0.64     c21.214-4.668,40.124-17.92,55.305-36.028l3.584,11.127L284.356,372.301z M279.962,332.826c-1.749,2.56-3.541,5.026-5.393,7.373     c-0.444,0.572-0.887,1.143-1.34,1.698c-9.865,12.109-20.949,21.274-32.538,26.914c-0.094,0.051-0.188,0.085-0.282,0.137     c-2.756,1.331-5.547,2.432-8.346,3.371c-0.256,0.077-0.495,0.171-0.742,0.256c-2.628,0.836-5.274,1.442-7.927,1.929     c-0.384,0.06-0.759,0.179-1.152,0.239c-2.961,0.469-5.939,0.725-8.909,0.725c-3.106,0-6.178-0.282-9.216-0.768     c-18.142-2.978-36.011-14.618-51.012-33.186c-0.64-0.794-1.22-1.664-1.852-2.483c-1.664-2.159-3.311-4.352-4.89-6.69     c-16.631-24.636-26.897-56.218-26.897-84.872v-44.8c0-55.287,42.112-100.267,93.867-100.267c4.796,0,9.685,0.444,14.626,1.297     c-1.613,5.393-2.833,10.94-3.806,16.572c-0.418,2.355-0.794,4.71-1.084,7.083c-0.205,1.63-0.41,3.268-0.546,4.915     c-0.393,4.258-0.657,8.525-0.657,12.8c0,4.446,0.282,8.849,0.674,13.227c0.111,1.186,0.239,2.364,0.375,3.55     c0.427,3.635,0.973,7.228,1.656,10.795c0.136,0.725,0.247,1.459,0.393,2.176c0.896,4.309,2.005,8.55,3.285,12.715     c0.179,0.623,0.401,1.229,0.597,1.843c1.22,3.831,2.603,7.586,4.139,11.281c0.179,0.427,0.35,0.879,0.538,1.314     c12.621,29.645,34.935,54.605,64,70.434c0.324,0.171,0.648,0.333,0.964,0.503c1.886,1.016,3.738,2.057,5.675,2.978     C300.006,295.799,291.499,315.896,279.962,332.826z M315.733,238.933v-51.2c0-4.719,3.823-8.533,8.533-8.533     c4.719,0,8.533,3.814,8.533,8.533v22.272c5.811,5.931,14.891,9.882,25.6,11.264v-68.284c-26.001-3.422-51.2-22.076-51.2-50.586     c0-28.51,25.199-47.164,51.2-50.586v-9.148c0-4.719,3.823-8.533,8.533-8.533c4.719,0,8.533,3.814,8.533,8.533v8.969     c9.626,0.913,18.27,3.422,25.6,7.364V51.2c0-4.719,3.823-8.533,8.533-8.533c4.719,0,8.533,3.814,8.533,8.533v51.2     c0,4.719-3.814,8.533-8.533,8.533c-4.71,0-8.533-3.814-8.533-8.533V80.111c-5.888-6.101-14.72-9.975-25.6-11.298v68.335     c26.01,3.422,51.2,22.076,51.2,50.586s-25.19,47.164-51.2,50.586v9.148c0,4.719-3.814,8.533-8.533,8.533     c-4.71,0-8.533-3.814-8.533-8.533v-8.986c-9.532-0.947-18.227-3.499-25.6-7.441v7.893c0,4.719-3.814,8.533-8.533,8.533     C319.556,247.467,315.733,243.652,315.733,238.933z" fill="#036194"/>
			<path d="M358.403,69.052c-17.732,3.149-34.133,15.744-34.133,33.348c0,18.167,16.452,30.353,34.133,33.374V69.052z" fill="#036194"/>
		</g>
	</g>
</g>
<g>
</g>
<g>
</g>
<g>
</g>
<g>
</g>
<g>
</g>
<g>
</g>
<g>
</g>
<g>
</g>
<g>
</g>
<g>
</g>
<g>
</g>
<g>
</g>
<g>
</g>
<g>
</g>
<g>
</g>
</svg>
